<?xml version="1.0" encoding="UTF-8"?>
<svg width="30px" height="23px" viewBox="0 0 30 23" version="1.1" xmlns="http://www.w3.org/2000/svg" xmlns:xlink="http://www.w3.org/1999/xlink">
    <!-- Generator: Sketch 47.1 (45422) - http://www.bohemiancoding.com/sketch -->
    <title>Artboard</title>
    <desc>Created with Sketch.</desc>
    <defs></defs>
    <g id="Page-1" stroke="none" stroke-width="1" fill="none" fill-rule="evenodd">
        <g id="Artboard">
            <g id="list"></g>
            <path d="M1.5,3 C0.671572875,3 0,2.32842712 0,1.5 C0,0.671572875 0.671572875,0 1.5,0 C2.32842712,0 3,0.671572875 3,1.5 C3,2.32842712 2.32842712,3 1.5,3 Z M9.5,0 L28.5,0 C29.3284271,-1.52179594e-16 30,0.671572875 30,1.5 L30,1.5 C30,2.32842712 29.3284271,3 28.5,3 L9.5,3 C8.67157288,3 8,2.32842712 8,1.5 L8,1.5 L8,1.5 C8,0.671572875 8.67157288,1.52179594e-16 9.5,0 Z M1.5,13 C0.671572875,13 0,12.3284271 0,11.5 C0,10.6715729 0.671572875,10 1.5,10 C2.32842712,10 3,10.6715729 3,11.5 C3,12.3284271 2.32842712,13 1.5,13 Z M9.5,10 L28.5,10 C29.3284271,10 30,10.6715729 30,11.5 C30,12.3284271 29.3284271,13 28.5,13 L9.5,13 C8.67157288,13 8,12.3284271 8,11.5 C8,10.6715729 8.67157288,10 9.5,10 Z M1.5,23 C0.671572875,23 0,22.3284271 0,21.5 C0,20.6715729 0.671572875,20 1.5,20 C2.32842712,20 3,20.6715729 3,21.5 C3,22.3284271 2.32842712,23 1.5,23 Z M9.5,20 L28.5,20 C29.3284271,20 30,20.6715729 30,21.5 C30,22.3284271 29.3284271,23 28.5,23 L9.5,23 C8.67157288,23 8,22.3284271 8,21.5 C8,20.6715729 8.67157288,20 9.5,20 Z" id="Combined-Shape" fill="#000000" fill-rule="nonzero"></path>
        </g>
    </g>
</svg>