<?xml version="1.0" encoding="UTF-8"?>
<svg width="28px" height="16px" viewBox="0 0 28 16" version="1.1" xmlns="http://www.w3.org/2000/svg" xmlns:xlink="http://www.w3.org/1999/xlink">
    <!-- Generator: Sketch 47.1 (45422) - http://www.bohemiancoding.com/sketch -->
    <title>tips</title>
    <desc>Created with Sketch.</desc>
    <defs></defs>
    <g id="Page-1" stroke="none" stroke-width="1" fill="none" fill-rule="evenodd">
        <g id="Artboard" transform="translate(-282.000000, -294.000000)" fill="#333333">
            <path d="M286.012642,300.932 L286.012642,306 L283.478642,306 L283.478642,300.932 L282.638642,300.932 L282.638642,298.818 L283.478642,298.818 L283.478642,296.662 L286.012642,296.662 L286.012642,298.818 L287.454642,298.818 L287.454642,300.932 L286.012642,300.932 Z M291.331087,298.818 L291.331087,306 L288.797087,306 L288.797087,298.818 L291.331087,298.818 Z M288.629087,296.06 C288.629087,295.863999 288.66642,295.679668 288.741087,295.507 C288.815754,295.334332 288.91842,295.182667 289.049087,295.052 C289.179754,294.921333 289.331419,294.818667 289.504087,294.744 C289.676754,294.669333 289.861086,294.632 290.057087,294.632 C290.253088,294.632 290.437419,294.669333 290.610087,294.744 C290.782754,294.818667 290.93442,294.921333 291.065087,295.052 C291.195754,295.182667 291.29842,295.334332 291.373087,295.507 C291.447754,295.679668 291.485087,295.863999 291.485087,296.06 C291.485087,296.256001 291.447754,296.440332 291.373087,296.613 C291.29842,296.785668 291.195754,296.937333 291.065087,297.068 C290.93442,297.198667 290.782754,297.301333 290.610087,297.376 C290.437419,297.450667 290.253088,297.488 290.057087,297.488 C289.861086,297.488 289.676754,297.450667 289.504087,297.376 C289.331419,297.301333 289.179754,297.198667 289.049087,297.068 C288.91842,296.937333 288.815754,296.785668 288.741087,296.613 C288.66642,296.440332 288.629087,296.256001 288.629087,296.06 Z M298.987531,302.43 C298.987531,302.205999 298.947865,301.993668 298.868531,301.793 C298.789198,301.592332 298.674865,301.417334 298.525531,301.268 C298.376197,301.118666 298.201199,300.999667 298.000531,300.911 C297.799864,300.822333 297.582866,300.778 297.349531,300.778 C297.12553,300.778 296.915532,300.82 296.719531,300.904 C296.52353,300.988 296.353199,301.104666 296.208531,301.254 C296.063864,301.403334 295.947198,301.578332 295.858531,301.779 C295.769864,301.979668 295.725531,302.191999 295.725531,302.416 C295.725531,302.640001 295.767531,302.849999 295.851531,303.046 C295.935532,303.242001 296.052197,303.412333 296.201531,303.557 C296.350865,303.701667 296.525864,303.818333 296.726531,303.907 C296.927199,303.995667 297.13953,304.04 297.363531,304.04 C297.587532,304.04 297.79753,303.998 297.993531,303.914 C298.189532,303.83 298.359864,303.713334 298.504531,303.564 C298.649199,303.414666 298.765864,303.242001 298.854531,303.046 C298.943198,302.849999 298.987531,302.644668 298.987531,302.43 Z M295.795531,309.584 L293.261531,309.584 L293.261531,298.818 L295.795531,298.818 L295.795531,299.616 C296.336867,298.934663 297.074193,298.594 298.007531,298.594 C298.520867,298.594 298.999196,298.694332 299.442531,298.895 C299.885867,299.095668 300.270863,299.368665 300.597531,299.714 C300.9242,300.059335 301.17853,300.465331 301.360531,300.932 C301.542532,301.398669 301.633531,301.897997 301.633531,302.43 C301.633531,302.962003 301.542532,303.456664 301.360531,303.914 C301.17853,304.371336 300.926533,304.772665 300.604531,305.118 C300.28253,305.463335 299.9022,305.733999 299.463531,305.93 C299.024862,306.126001 298.548867,306.224 298.035531,306.224 C297.139527,306.224 296.392868,305.916003 295.795531,305.3 L295.795531,309.584 Z M308.029976,300.666 C307.563307,300.423332 307.105978,300.302 306.657976,300.302 C306.424641,300.302 306.235643,300.348666 306.090976,300.442 C305.946308,300.535334 305.873976,300.661333 305.873976,300.82 C305.873976,300.904 305.885642,300.971666 305.908976,301.023 C305.932309,301.074334 305.983642,301.123333 306.062976,301.17 C306.142309,301.216667 306.258975,301.258666 306.412976,301.296 C306.566976,301.333334 306.769974,301.38 307.021976,301.436 C307.721979,301.576001 308.244641,301.825665 308.589976,302.185 C308.935311,302.544335 309.107976,303.003997 309.107976,303.564 C309.107976,303.984002 309.023976,304.361998 308.855976,304.698 C308.687975,305.034002 308.454644,305.316332 308.155976,305.545 C307.857307,305.773668 307.497978,305.950999 307.077976,306.077 C306.657974,306.203001 306.195978,306.266 305.691976,306.266 C304.721304,306.266 303.764647,305.990669 302.821976,305.44 L303.745976,303.648 C304.455313,304.133336 305.127306,304.376 305.761976,304.376 C305.99531,304.376 306.186642,304.324667 306.335976,304.222 C306.48531,304.119333 306.559976,303.988667 306.559976,303.83 C306.559976,303.736666 306.548309,303.659667 306.524976,303.599 C306.501642,303.538333 306.452643,303.482334 306.377976,303.431 C306.303309,303.379666 306.193643,303.333 306.048976,303.291 C305.904308,303.249 305.71531,303.204667 305.481976,303.158 C304.697972,302.999333 304.149644,302.763668 303.836976,302.451 C303.524307,302.138332 303.367976,301.706669 303.367976,301.156 C303.367976,300.754665 303.442642,300.393002 303.591976,300.071 C303.74131,299.748998 303.955974,299.476001 304.235976,299.252 C304.515977,299.027999 304.854307,298.855334 305.250976,298.734 C305.647644,298.612666 306.08864,298.552 306.573976,298.552 C307.367313,298.552 308.137305,298.705998 308.883976,299.014 L308.029976,300.666 Z" id="tips"></path>
        </g>
    </g>
</svg>